# xmcd
#
# Track frame offsets:
#	150
#	25392
#	44386
#	64442
#	77915
#	90865
#	127860
#	166800
#	180718
#	194410
#	209760
#
# Disc length: 3058 seconds
#
# Revision: 1
# Processed by: cddbd v1.5.2PL0 Copyright (c) Steve Scherf et al.
# Submitted via: audiograbber 1.83.01
#
DISCID=950bf00b
DTITLE=Gallagher, Rory - Kaptain Kopter and The (Fabulous) Twirly Birds
DYEAR=1972
DGENRE=Blues
TTITLE0=Downer
TTITLE1=Devil
TTITLE2=I Don't Want Nobody
TTITLE3=Day Tripper
TTITLE4=Mother And Child Reunion
TTITLE5=Things Yet To come
TTITLE6=Rain
TTITLE7=Rainbow
TTITLE8=Walkin' The Dog
TTITLE9=Live For The Day
TTITLE10=Rebel
EXTD=
EXTT0=
EXTT1=
EXTT2=
EXTT3=
EXTT4=
EXTT5=
EXTT6=
EXTT7=
EXTT8=
EXTT9=
EXTT10=
PLAYORDER=
